<svg width="530" height="572" viewBox="0 0 530 572" fill="none" xmlns="http://www.w3.org/2000/svg"><path d="M515.447 0H14C7.373 0 2 5.373 2 12v501.447c0 6.627 5.373 12 12 12h501.447c6.627 0 12-5.373 12-12V12c0-6.627-5.373-12-12-12Z" stroke="#000" stroke-width="4" stroke-miterlimit="10"/><path d="M113.085 526.403H387.62c1.153-10.491-40.899-233.578-90.296-305.295-5.608-8.139-53.614-14.061-71.237 6.184C132.734 334.5 110.83 523.833 113.085 526.403" fill="#000"/><path d="M303.835 239.622c7.792 20.187 37.188 90.962 53.165 141.756 10.721 34.087 14.803 62.695 17.149 70.212 0 0-81.061-26.038-99.313-26.083-28.108-.07-73.198 58.638-62.137 65.989 17.387 11.567 100.268 50.903 166.455 63.252 35.977 6.716 103.767-39.015 98.409-75.371-7.517-51.024-99.723-185.52-134.803-223.657-18.213-19.796-48.423-40.7-38.925-16.098" fill="#ff9581"/><path d="M482.504 490.163c-1.698 36.753-47.673 67.693-74.339 69.327-45.987 2.788-183.943-37.387-183.943-37.387l53.626-103.312s93.872 31.863 96.256 32.76v-.038c-.827-2.736-23.961-89.668-34.298-118.474-.551-1.59-1.192-3.217-1.795-4.928-2.973-7.979-7.055-18.515-11.567-29.896l-.045-.083c-2.499-6.3-5.14-12.888-7.735-19.386v-.039c-11.337-28.165-22.385-54.972-22.385-54.972 15.803 2.596 31.408 10.901 57.029 37.791 25.57 26.858 132.003 168.006 129.196 228.637" fill="#000"/><path d="M259.975 499.75c3.826-7.312 7.716-14.593 11.555-21.898a2285 2285 0 0 1 11.426-21.392c3.973-7.357 8.145-14.701 11.356-22.43.058-.147-.141-.269-.237-.141-4.826 6.364-8.799 13.381-12.766 20.296-4.108 7.165-8.113 14.394-12.08 21.642-3.89 7.1-7.633 14.271-11.324 21.468-3.794 7.408-7.626 15.086-10.369 22.956-.109.314.327.621.532.314 4.435-6.582 8.229-13.792 11.907-20.815" fill="#2b454e"/><path d="m402.814 466.797-28.665-15.201-.045-.038v-.039c-.827-2.736-23.961-89.668-34.298-118.474-.551-1.589-1.192-3.217-1.795-4.928-2.973-7.979-7.055-18.514-11.567-29.896z" fill="#1c1c1c"/><path d="M426.545 479.409c-7.959-5.947-16.54-11.266-25.185-16.156a156 156 0 0 0-13.259-6.722c-4.82-2.153-9.914-3.711-14.702-5.877-.365-.166-.634.398-.269.564 4.473 2.025 8.722 4.845 13.042 7.197a636 636 0 0 0 13.554 7.197c8.933 4.595 17.706 9.471 26.589 14.163.211.115.429-.218.23-.366" fill="#1c1c1c"/><path d="M405.672 457.153c-7.196.096-50.633-11.504-56.958-5.544-38.554 36.343-50.743 29.024-58.952 33.76-63.528 36.548-148.364 79.485-178.644 79.754-45.924.372-64.213-38.169-56.568-74.582C69.642 418.56 166.718 278.208 210.642 240.91c23.289-19.745 21.449 10.036 11.817 42.412-5.652 18.982-15.534 47.205-25.614 74.902-8.927 24.673-32.588 87.72-32.998 89.2v.039c-.038.083-.077.128-.07.173q-.05.25.506.096c2.019-.372 56.344-25.974 110.976-40.04 19.251-4.954 59.343-12.016 73.717-5.601 8.549 3.813 8.69 8.914 8.69 8.914s6.851-.622 14.08 5.325c4.793 3.948 6.28 9.53 6.28 9.53s7.498 1.051 11.401 5.396c4.652 5.184 5.063 10.67 5.063 10.67 10.125 2.704 11.182 15.227 11.182 15.227" fill="#fff"/><path d="M341.504 409.486c-5.793.083-11.445.923-17.136 1.922-.385.071-.372.667.038.622 5.588-.615 11.247-.743 16.861-.929 5.582-.186 11.253-.308 16.835-.192.032 0 .039-.058.007-.064-5.569-.917-10.94-1.442-16.605-1.359m36.362 16.041c-9.946-2.73-17.873-4.243-30.364-2.679-.403.051-.371.647.026.621 11.869-.736 19.61.468 30.319 2.269.121.026.128-.179.019-.211m16.515 16.066c-9.972-4.102-17.649-5.384-28.717-5.384-.391 0-.519.577-.115.616 10.619 1.012 18.386 2.537 28.684 5.216.257.064.391-.346.148-.448m-121.775-33.267c-4.768.622-9.536 2.025-14.201 3.172-4.973 1.224-9.934 2.577-14.804 4.185-9.754 3.217-19.219 7.075-28.556 11.33-.359.167-.167.718.218.584 9.51-3.333 19.116-6.454 28.729-9.479 4.729-1.486 9.427-3.069 14.137-4.607 4.832-1.583 9.863-2.782 14.612-4.582.32-.122.224-.654-.135-.603" fill="#1a2e35"/><path d="M234.61 418.624c10.055-3.402 14.599-3.422 14.599-3.422l57.157 96.519s-157.431 56.677-189.75 59.99c-32.324 3.313-69.096-22.141-69.718-62.72-.871-57.036 92.135-194.005 138.924-246.971 21.443-24.276 46.442-41.906 52.819-37.926 7.53 4.697-6.146 35.221-13.355 57.991-13.304 42.033-60.99 165.647-60.99 165.647s58.337-25.051 70.314-29.108" fill="#000"/><path d="M248.696 415.125c-8.869.52-47.212 13.875-66.014 21.943-18.739 8.043-36.766 17.585-53.678 29.005-9.568 6.46-18.649 13.49-27.621 20.751-.307.25.026.75.359.513 16.534-11.824 34.196-22.373 52.069-32.03 17.784-9.607 35.894-18.726 54.742-26.076 10.734-4.185 29.191-10.453 39.675-13.202 2.967-.782.743-.923.468-.904" fill="#1c1c1c"/><path d="M210.95 330.725c-2.397 3.871-4.826 7.716-6.877 11.792-.096.192-.186.384-.282.577a982 982 0 0 0 8.703-27.897c.173-.576-.782-.884-1-.326-13.528 34.26-26.082 68.936-38.258 103.702-3.41 9.722-6.396 19.546-9.491 29.364-.109.34.448.513.589.192 3.717-8.42 7.46-16.784 10.863-25.352 3.402-8.562 6.562-17.219 9.76-25.858 5.588-15.105 10.913-30.287 16.047-45.545 1.608-2.673 3.23-5.339 4.748-8.056 2.211-3.967 4.031-8.12 5.877-12.266.199-.455-.429-.73-.679-.327m57.112 159.976c-4.191-7.113-8.318-14.259-12.49-21.379a2298 2298 0 0 1-12.131-21c-4.146-7.261-8.177-14.682-13.041-21.494-.09-.129-.308-.02-.244.128 2.852 7.459 6.71 14.541 10.491 21.558 3.915 7.274 7.94 14.49 11.997 21.686 3.973 7.05 8.081 14.016 12.246 20.956 4.281 7.133 8.78 14.445 14.016 20.93.211.257.698.058.551-.288-3.249-7.242-7.37-14.265-11.395-21.097" fill="#1c1c1c"/><path d="M308.641 511.926c-4.742-9.35-12.118-18.533-17.578-27.428-.206-.34-.712.013-.513.352 4.96 8.344 9.504 17.335 14.246 25.82-21.622 8.927-44.578 16.887-66.629 24.699-22.629 8.023-45.405 15.624-68.495 22.276-12.906 3.717-25.832 7.748-38.816 11.157-.807.211-.59.878.237.718 23.359-4.397 46.295-11.145 68.911-18.322 23.064-7.319 45.827-15.496 68.481-23.962 12.747-4.761 40.541-14.553 40.156-15.31" fill="#1c1c1c"/><path d="M271.151 408.39c-29.729 7.613-63.937 20.142-79.267 26.14-.403.141-.769.282-1.134.417-13.503 5.306-21.866 9.241-23.872 9.574-.166-.077-.294-.192-.423-.269v-.038q-2.103-1.521-4.178-2.301c-3.807-1.365-40.386-5.934-39.464-17.265.891-11.208 15.797-10.51 17.989-10.356-2.371-.519-22.225-5.171-15.758-15.085 4.569-7.031 24.23-5.999 26.21-5.922-2.005-.66-20.244-6.607-13.97-16.726 4.492-7.242 26.441-6.3 28.973-5.87-2.051-.782-18.309-3.506-10.722-12.228 5.268-6.075 46.597.103 64.97 9.273 27.319 13.638 50.646 40.656 50.646 40.656" fill="#fff"/><path d="M191.884 434.531c-.403.141-.769.282-1.134.416-6.344-4.928-30.351-17.642-49.211-20.058-1.166-.148-1.243-.821-.006-.763 23.288 1.057 44.225 14.772 50.351 20.405m-39.732-40.496c26.031 5.165 37.797 10.914 60.182 25.134.314.199.666-.263.365-.493-20.866-15.618-33.85-23.353-60.323-25.301-1.199-.09-1.416.423-.224.66m14.906-22.808c24.974 6.639 38.137 12.394 58.253 28.672.474.384 1.058-.199.622-.628-18.957-18.386-35.337-25.673-58.638-28.736-1.589-.205-1.807.276-.237.692" fill="#1a2e35"/><path d="M292.107 271.075c-14.791 5.319-43.52-14.951-55.959-32.6-.846-1.218-.41-15.041-.679-31.87-.199-10.209-.667-21.577-1.84-31.914l66.636 8.395s-3.916 22.398-1.762 40.412c.198 1.506.506 2.89.929 4.191.045.192.128.423.173.692 2.237 7.908 6.799 37.541-7.498 42.694Z" fill="#fff" stroke="#000" stroke-width=".641" stroke-miterlimit="10"/><path d="M299.631 228.375c.128.429.256.897.339 1.455-39.893-1.692-55.068-19.232-64.886-36.061-.301-6.415-.724-12.92-1.455-19.078l66.642 8.382s-3.934 22.417-1.756 40.425c.174 1.5.513 2.865.943 4.191.044.167.083.429.173.686Z" fill="#000" stroke="#000" stroke-width=".641" stroke-miterlimit="10"/><path d="M206.316 104.793c-3.614 23.923 18.22 88.284 36.676 100.633 26.756 17.899 65.707 14.252 79.69-16.803 13.554-30.101-16.386-113.47-36.548-124.19-29.697-15.798-74.479 5.017-79.818 40.36Z" fill="#fff" stroke="#000" stroke-width="1.282" stroke-miterlimit="10"/><path d="M267.934 133.74c-.089-.153-.269.321-.205.494 1.583 4.294 2.679 9.484-.769 12.234-.109.083-.019.301.115.23 4.57-2.268 3.051-9.144.859-12.958" fill="#000"/><path d="M262.538 130.504c-7.158 1.801-3.031 15.989 3.602 14.323 6.53-1.647 2.403-15.835-3.602-14.323m32.133-4.813c-.013-.179.403.109.448.289 1.141 4.434 3.192 9.324 7.594 9.625.135.007.193.238.039.257-5.057.73-7.716-5.787-8.081-10.171" fill="#000"/><path d="M297.26 119.956c6.914-2.596 11.593 11.426 5.184 13.823-6.3 2.371-10.978-11.651-5.184-13.823m-42.207 5.684c1.788-1.051 3.269-2.313 4.935-3.537 1.877-1.378 3.512-2.282 4.338-4.563.443-1.224-.391-2.948-1.538-3.493-2.678-1.262-5.396-.147-7.722 1.416-2.525 1.699-4.037 3.653-4.922 6.563-.858 2.819 2.544 4.998 4.909 3.614m45.616-14.426c-2.064.25-4.006.141-6.063.18-2.326.045-4.178.32-6.222-1-1.096-.705-1.474-2.582-.891-3.71 1.359-2.628 4.197-3.39 6.998-3.557 3.038-.18 5.428.455 7.889 2.236 2.39 1.724 1.006 5.518-1.711 5.851m-22.565 63.272c1.353.724 2.814 1.833 4.448 1.506 1.564-.314 3.159-1.525 4.403-2.48.121-.096.307.012.256.173-.647 2.018-2.743 3.774-4.883 4.011-2.09.231-3.576-1.204-4.589-2.883-.141-.238.167-.43.365-.327" fill="#000"/><path d="M278.893 159.983c3.569 3.102 7.792 4.134 11.926 3.749 1.846-.16 3.704-.634 5.454-1.32.352-.109.692-.25.993-.416.308-.135.59-.257.923-.43.493-.224.653-.73.596-1.243l-.013-.032c-.051-.16-.09-.288-.173-.436l-.006-.032-.122-.384c-.891-3.41-2.717-8.46-2.717-8.46 1.416.257 8.549 1.263 7.933-.48-5.133-14.381-10.836-30.377-18.982-43.604-.243-.448-.948-.121-.769.346 4.384 14.016 11.209 27.166 15.836 41.181-2.237-.179-5.928-.64-7.691-.089-.442.275 3.705 9.696 3.98 11.259 0 0 .019.065.019.174-5.472 2.383-10.26 1.909-16.892-.302-.398-.153-.661.244-.295.519" fill="#000"/><path opacity=".2" d="M213.34 150.133c3.775-3.089 8.543-18.918 10.76-25.454 2.301-6.793-4.525-34.33-6.755-42.52-5.633 6.356-9.6 14.13-10.997 22.884-1.602 9.965 1.5 27.627 6.992 45.09" fill="#000"/><path d="M276.342 90.073c-3.198 6.895-9.677 11.83-17.277 12.74-7.402.884-15.829-1.98-20.341-8.113-.134-.18-.416.025-.282.211 4.826 6.55 12.497 10.882 20.815 9.683 7.806-1.128 14.881-6.902 17.585-14.297.115-.333-.352-.545-.5-.224m-36.945-45.981c-12.195 3.8-21.507 13.83-23.59 23.48-1.269 5.864-.192 11.138 2.141 16.15.096.205.519.032.442-.18-3.095-8.106-1.711-18.75 5.524-27.114 6.953-8.03 17.809-13.022 28.71-12.118 5.691.467 10.786 2.531 14.061 5.889.365.378 1.204-.18.877-.577-5.543-6.703-17.129-8.965-28.165-5.53m78.921 6.12c-3.672-5.486-9.382-9.453-15.714-11.234-8.869-2.5-17.187.64-25.384 3.922-.224.09-.083.436.135.346 6.991-2.775 14.239-5.178 21.827-3.698 6.184 1.211 12.023 4.512 16.028 9.408 8.318 10.164 7.741 25.897-1.487 35.292-5.223 5.319-12.721 8.33-20.168 8.087-.294-.006-.378.442-.076.462 13.72.807 26.749-9.088 28.934-22.802 1.083-6.767-.256-14.06-4.095-19.783" fill="#1a2e35"/><path d="M206.169 118.488s-17.886-18.674-11.728-34.157c3.487-8.773 22.097-13.01 22.097-13.01s2.929-12.214 17.143-19.988c14.361-7.85 35.144-4.044 35.144-4.044s12.221-12.464 28.082-8.516c22.116 5.505 27.928 35.182 11.394 49.922-11.612 10.35-33.247 3.595-33.247 3.595-1.692.737-16.624 16.669-34.76 4.448 0 0-8.286 12.951-20.154 8.863.006.006-2.205 11.4-13.971 12.887" fill="#000"/><path d="m299.413 226.972-14.176 39.213-49.602-46.808-12.939 16.118s49.654 75.479 49.814 71.974l14.579-33.728 23.737 22.173-4.056-57.785z" fill="#edefef"/><path d="M310.442 267.236c-.993-9.516-1.724-19.136-3.153-28.595-.051-.333-.583-.467-.654-.064-1.563 9.286 2.416 45.667 2.711 54.415-.032-.032-.07-.064-.102-.096-.994-.961-21.962-19.469-22.155-19.161-3.236 5.389-13.938 29.953-14.65 32.177-7.85-11.991-37.867-55.524-47.051-66.796-.263-.327-.769-.032-.557.352 7.017 12.708 46.769 71.359 47.339 71.167.404.288 13.721-29.973 15.233-35.651 3.583 4.07 24.84 25.051 24.853 23.628.102-9.58-.827-21.846-1.814-31.376" fill="#1c1c1c"/><path d="M228.394 156.612s-18.489-18.815-27.269-11.875 7.62 35.965 19.687 38.285 14.432-8.805 14.432-8.805z" fill="#fff" stroke="#000" stroke-width="1.282" stroke-miterlimit="10"/><path d="M206.034 152.934c-.185.012-.179.275-.006.314 8.504 1.89 13.939 8.568 18.162 15.733-2.865-2.551-6.357-3.621-9.837-.141-.18.185.07.474.288.39 3.147-1.243 5.595-1.076 8.235 1.167 1.871 1.589 3.332 3.749 4.806 5.697.494.647 1.718.051 1.308-.724l-.096-.173c-1.513-10.183-11.786-23.071-22.86-22.263" fill="#1a2e35"/></svg>