<svg width="889" height="596" viewBox="0 0 889 596" fill="none" xmlns="http://www.w3.org/2000/svg"><g clip-path="url(#a)"><g clip-path="url(#b)"><path d="M387.457 438.674c-75.963 42.775-33.187 148.239-8.112 152.664 19.313 3.408 82.804 1.454 113.576 0l238.213-176.264-139.389-19.175c-42.775 0-143.517 8.555-204.288 42.775" fill="#fff"/><path d="M492.921 591.338c-1.099.055 1.19-.057 0 0Zm0 0c-30.772 1.454-94.263 3.408-113.576 0-25.075-4.425-67.851-109.889 8.112-152.664 60.771-34.22 161.513-42.775 204.288-42.775l139.389 19.175z" stroke="#000" stroke-width="2.911"/><path d="M408.106 453.152c52.51-10.03 95.138 20.813 109.888 37.488a146 146 0 0 1 8.004-10.2c-4.534-19.913-92.817-41.3-117.892-27.288" fill="#000001"/><path d="M487.596 593.52c1.864-.081 3.643-.162 5.324-.242l194.566-143.966c-8.571-2.899-30.663-11.818-50.457-24.303-134.296 15.914-155.578 118.972-149.433 168.511" fill="#0e1729"/><path d="M709.745 593.277c96.612-30.975 21.387-171.101 21.387-176.263l-36.138-4.972C510.913 423.405 483.576 537.6 492.918 593.277l31.066 255.914h80.053l6.882-255.914z" fill="#fff" stroke="#000" stroke-width="2.911"/><path d="M591.745 540.178c11.8 11.8 17.701 40.317 19.176 53.1h11.062c-2.95-14.504-13.128-45.43-30.238-53.1" fill="#000001"/><path fill="#000" d="M94 593h796v3H94z"/><path d="M606.714 146.088c-3.884-4.945-13.984-20.13-23.307-41.318 2.119-2.473 6.144-9.96 5.297-20.13-11.018-1.695-17.695-25.427-19.656-37.08 14.631-8.117 2.164-29.767 6.943-30.723 5.297-1.06 19.07 4.237 19.07 18.01 0 13.772 23.596 7.271 29.664 4.237 14.831-7.416 9.535 10.596 3.178 27.546-3.39 5.933 8.475 17.304 14.832 22.248 1.694 16.951-13.42 43.084-21.189 54.031 1.06 31.783 1.272 95.349-6.356 95.349-5.085-10.17-7.769-65.685-8.476-92.17Z" fill="#fff" stroke="#000" stroke-width="1.941"/><path d="M597.177 49.673c-1.766 1.765-4.238 6.78 0 12.713m8.475 3.186c-.706 3.884-3.814 9.747-10.594 2.119m33.902-14.837c1.412-3.885 3.178-11.442-1.06-10.595" stroke="#241715" stroke-width=".97"/><path d="M587.572 96.292c.934-3.235 1.503-7.185 1.13-11.654 5.871 3.179 15.89 4.238 37.079-10.595.846 11.019-25.12 19.423-38.209 22.249m54.102-79.456c7.416 18.01-9.535 42.377-13.773 49.793 6.357-16.95 10.594-34.962-3.178-27.546-5.973 3.216-29.664 9.535-29.664-4.238s-13.773-19.07-19.07-18.01c-4.779.957 7.688 22.608-6.942 30.724-1.587.88-3.491 1.6-5.771 2.119 5.297-7.416 3.178-6.357-1.06-24.367S577.049 3.063 595.059.944s39.199-2.119 46.615 15.892m99.586 114.42c-13.561-17.799-71.336-35.668-98.528-42.377 1.695 16.95-13.419 43.083-21.188 54.031 1.06 31.783 1.271 95.349-6.356 95.349-5.086-10.171-7.77-65.685-8.476-92.171-3.885-4.944-13.984-20.129-23.307-41.318-2.119 6.357-59.329 49.793-68.864 63.566s-12.713 146.202-12.713 157.856-4.238 91.111 30.724 91.111c27.969 0 142.317 3.885 200.232 5.297 8.476-89.699 22.036-273.546 8.476-291.344" fill="#000"/><path d="M501.831 326.185c57.916-12.007 173.747-25.214 173.747 18.011s-53.678 67.653-80.517 74.463m80.517-320.352c-7.063 3.211-22.036 18.322-25.426 53.072-4.238 43.436-17.841 58.268-28.861 58.268m-10.814 2.119c-9.023 4.944-28.765 8.688-35.545-15.891-8.475-30.724-26.158-47.675-45.921-42.378m178.35-43.436c-2.119-.896-36.02 22.248-39.199 75.219-3.178 52.972-37.08 152.559-107.003 99.587-26.487-26.486-52.008-43.083-56.294-41.318m78.543 174.79c9.534-9.176 26.062-30.495 15.891-42.36-10.171-11.866-65.802 4.237-92.346 13.772m239.395-230.956c-22.884 14.125-65.049 59.116-50.64 126.072 12.713 38.14 35.945 34.255 45.972 27.546m-3.833 51.912c-13.694.18-39.809 11.929-34.723 57.48" stroke="#fff" stroke-width=".97"/><path d="M615.188 417.293V239.308" stroke="#027269" stroke-width=".97"/><path d="m615.824 415.56-5.207-38.713c-11.84 2.148-36.498 4.229-55.546 6.034-19.941 1.89-24.966 12.36-11.581 15.704-7.001-.874-14.84 8.779-3.668 13.101-8.195 2.911 8.014 6.159 15.96 6.175-4.548.687-12.433 1.954-11.361 6.773 1.072 4.818 48.048-4.042 71.403-9.074" fill="#fff"/><path d="m615.824 415.561-5.207-38.713c-2.754.5-6.202.996-10.112 1.486l-11.845 42.618a890 890 0 0 0 27.164-5.391" fill="#000"/><path d="m556.106 418.146 16.474-4.637m-28.984-5.708 28.88-3.506m-28.985-5.711 29.497-5.102" stroke="#000" stroke-width=".97"/><path d="M772.692 381.565c2.563-40.574 5.362-245.043-40.406-256.065-52.904-12.741-52.21 182.255-29.243 226.74l-108.027 10.982 10.136 67.401c52.521-3.668 163.297 18.08 167.54-49.058" fill="#000"/><path d="M732.285 125.499c-52.903-12.74-52.21 182.255-29.242 226.741l-108.028 10.982" stroke="#fff" stroke-width=".97"/><path d="M754.322 154.883c-16.347 1.778-52.677 11.216-61.589 33.338m71.76 2.26c-14.732 6.444-49.222 28.136-53.573 50.404-4.35 22.267 41.726 14.749 60.354 10.62m1.13 38.988c-15.484 7.229-69.76 12.027-81.931-4.52m82.495 74.02c-15.857-9.623-61.508-28.832-73.454-21.471m-42.943 18.081c-6.781 14.691 3.838 68.712 33.902 74.586" stroke="#fff" stroke-width=".97"/><path d="M309.324 279.458H491.26a7.76 7.76 0 0 1 7.221 4.914l54.034 136.97a7.76 7.76 0 0 0 7.221 4.914h141.515a4.713 4.713 0 1 1 0 9.427H365.118a7.76 7.76 0 0 1-7.216-4.901l-55.795-140.7c-2.02-5.096 1.735-10.624 7.217-10.624Z" fill="#fff" stroke="#000" stroke-width="2.911"/><path d="m497.651 282.129 59.851 144.127h-4.042a7.76 7.76 0 0 1-7.166-4.779L489.65 285.456c-1.188-2.853.909-5.998 4-5.998a4.33 4.33 0 0 1 4.001 2.671M357.902 430.782l-55.795-140.7c-2.02-5.096 1.735-10.624 7.217-10.624h14.028c1.155 0 2.291.258 3.34.741 4.966 2.287 13.262 5.883 27.039 12.844 46.091 23.288 51.913 72.775 42.21 97.034-7.867 19.666 96.112 39.994 136.964 45.606H365.118a7.76 7.76 0 0 1-7.216-4.901" fill="#000"/><ellipse cx="11.574" cy="13.31" rx="11.574" ry="13.31" transform="rotate(159.441 183.69 202.695)scale(1 -1)" fill="#000"/></g></g><defs><clipPath id="a"><path fill="#fff" d="M0 0h889v596H0z"/></clipPath><clipPath id="b"><path fill="#fff" d="M0 0h889v596H0z"/></clipPath></defs></svg>